<?xml version="1.0" encoding="utf-8"?>
<!-- Generator: Adobe Illustrator 22.1.0, SVG Export Plug-In . SVG Version: 6.00 Build 0)  -->
<svg version="1.1" xmlns="http://www.w3.org/2000/svg" xmlns:xlink="http://www.w3.org/1999/xlink" x="0px" y="0px"
	 viewBox="0 0 1920 1080" style="enable-background:new 0 0 1920 1080;" xml:space="preserve">
<style type="text/css">
	.st0{fill:#292B30;}
	.st1{fill:#C09854;}
	.st2{fill:#F2F9FB;}
	.st3{fill:#42AC3F;}
</style>
<g id="Back">
	<g>
		<rect x="2" y="0" class="st0" width="1918" height="1080"/>
	</g>
</g>
<g id="Layer_1">
	<g>
		<polygon class="st1" points="480.3,311.5 457.1,258.6 389,277.7 374.7,207.2 325.5,214.8 321.4,188.1 396.1,176.5 409.7,243.8 
			472.4,226.3 505,300.7 		"/>
	</g>
	<g>
		<polygon class="st2" points="1748.3,1009 1722.1,1002.7 1739.8,929.2 1807.2,942.2 1814.8,877.5 1896,875.6 1896.6,902.5 
			1838.9,903.9 1830.6,974.2 1760,960.6 		"/>
	</g>
	<g>
		<path class="st1" d="M1024.3,245.2c12.6,11.4,35.7,6.7,42.9-8.7c2.6-5.6,3.3-12.1,6.8-17.2c11.1-16.3,40.9-7.8,52.5-23.8
			c8.3-11.3,2-27.8,6.8-40.9c4.6-12.4,17.8-19,29.3-25.6c11.5-6.6,23.6-16.7,22.9-29.9c-0.6-12-10.2-19-19.5-24.8
			c-11.7-7.3-37.1-20.3-37.1-20.3L1024.3,245.2z"/>
	</g>
	<g>
		<path class="st2" d="M227.6,1047.2c16.2-5,24-27.3,14.4-41.3c-3.5-5.1-8.7-9-11.4-14.7c-8.4-17.9,14.2-39.1,6.4-57.3
			c-5.5-12.9-22.9-15.9-31.7-26.8c-8.3-10.3-7.2-25-7-38.2c0.2-13.2-2.3-28.8-14-35c-10.6-5.6-21.5-0.9-31.3,4.1
			c-12.2,6.4-36.4,21.5-36.4,21.5L227.6,1047.2z"/>
	</g>
	<g>
		<path class="st2" d="M1880.2,550.1c-15.1-7.7-36.2,2.8-39.2,19.5c-1.1,6.1-0.1,12.6-2.1,18.4c-6.5,18.7-37.5,18.1-44.6,36.5
			c-5.1,13.1,5.3,27.3,4,41.3c-1.2,13.2-12.3,22.9-21.7,32.2c-9.4,9.3-18.5,22.2-14.4,34.8c3.6,11.4,14.8,15.7,25.2,18.9
			c13.2,4,41,10,41,10L1880.2,550.1z"/>
	</g>
	<g>
		<path class="st2" d="M801.1,377l-36.8,50.6c-1.4,1.9-4.3,1.5-5.2-0.6l-27-65.7c-0.9-2.3,1.1-4.6,3.5-4.1l63.8,15
			C801.5,372.8,802.4,375.3,801.1,377z"/>
	</g>
	<g>
		<path class="st1" d="M362.1,984.1L312.4,946c-1.9-1.4-1.4-4.3,0.8-5.2l66.3-25.3c2.3-0.9,4.6,1.2,4,3.6l-16.7,63.4
			C366.3,984.6,363.8,985.4,362.1,984.1z"/>
	</g>
	<g>
		<path class="st2" d="M1671.1,128l62.6-0.7c2.3,0,3.8,2.5,2.6,4.5l-36.6,60.8c-1.3,2.1-4.3,1.9-5.3-0.4l-26-60.2
			C1667.6,130.2,1669,128,1671.1,128z"/>
	</g>
	<g>
		<path class="st2" d="M1421.1,509l62.6-0.7c2.3,0,3.8,2.5,2.6,4.5l-36.6,60.8c-1.3,2.1-4.3,1.9-5.3-0.4l-26-60.2
			C1417.6,511.2,1419,509,1421.1,509z"/>
	</g>
	<g>
		<path class="st1" d="M1399.6,167.3l45.1-43.4c1.7-1.6,4.5-0.8,5,1.5l15,69.4c0.5,2.4-1.9,4.4-4.1,3.4l-60.2-26
			C1398.5,171.3,1398.1,168.8,1399.6,167.3z"/>
	</g>
	<g>
		<path class="st1" d="M541.2,237.6l45.1-43.4c1.7-1.6,4.5-0.8,5,1.5l15,69.4c0.5,2.4-1.9,4.4-4.1,3.4l-60.2-26
			C540.1,241.7,539.6,239.1,541.2,237.6z"/>
	</g>
	<g>
		<path class="st1" d="M53.3,107.9l45.1-43.4c1.7-1.6,4.5-0.8,5,1.5l15,69.4c0.5,2.4-1.9,4.4-4.1,3.4l-60.2-26
			C52.2,112,51.8,109.4,53.3,107.9z"/>
	</g>
	<g>
		<path class="st2" d="M1892.5,384l-10.5,61.7c-0.4,2.3-3.2,3.3-4.9,1.7l-53.3-46.9c-1.8-1.6-1.1-4.6,1.3-5.2l63.9-14.8
			C1890.9,380.1,1892.9,381.9,1892.5,384z"/>
	</g>
	<g>
		<path class="st2" d="M108.5,617.5l-10.5,61.7c-0.4,2.3-3.2,3.3-4.9,1.7l-53.3-46.9c-1.8-1.6-1.1-4.6,1.3-5.2l63.9-14.8
			C106.9,613.6,108.8,615.4,108.5,617.5z"/>
	</g>
	<g>
		<circle class="st1" cx="337.2" cy="526.7" r="22"/>
	</g>
	<g>
		<circle class="st2" cx="311.3" cy="1026.4" r="22"/>
	</g>
	<g>
		<circle class="st2" cx="439.3" cy="539.9" r="22"/>
	</g>
	<g>
		<circle class="st2" cx="133.3" cy="192.9" r="22"/>
	</g>
	<g>
		<circle class="st2" cx="1316.4" cy="182.7" r="22"/>
	</g>
	<g>
		<circle class="st1" cx="85.5" cy="763.9" r="22"/>
	</g>
	<g>
		<circle class="st1" cx="315" cy="620.1" r="22"/>
	</g>
	<g>
		<circle class="st1" cx="122" cy="1020.4" r="22"/>
	</g>
	<g>
		<circle class="st1" cx="1212" cy="728.1" r="22"/>
	</g>
	<g>
		<circle class="st1" cx="1076.1" cy="720.1" r="22"/>
	</g>
	<g>
		<circle class="st1" cx="1048" cy="889.1" r="22"/>
	</g>
	<g>
		<circle class="st1" cx="1429.1" cy="429.1" r="22"/>
	</g>
	<g>
		<circle class="st2" cx="1652.7" cy="1020.4" r="22"/>
	</g>
	<g>
		<circle class="st2" cx="1876.6" cy="212.5" r="22"/>
	</g>
	<g>
		<circle class="st1" cx="1809.3" cy="489.2" r="22"/>
	</g>
	<g>
		<polygon class="st2" points="1510.9,1040.9 1499.2,984.3 1428.7,988.8 1429.4,916.9 1379.7,914.1 1381.2,887.1 1456.6,891.3 
			1455.9,960 1520.9,955.9 1537.4,1035.5 		"/>
	</g>
	<g>
		<polygon class="st2" points="1608.8,209.4 1535.9,189.4 1551.1,122.4 1486.7,112.7 1487.5,31.4 1514.5,31.7 1513.9,89.5 
			1583.9,100 1568,170.2 1615.9,183.4 		"/>
	</g>
	<g>
		<polygon class="st2" points="894.3,207.5 888.9,181 945.5,169.4 941.2,98.8 1013.1,99.7 1016,50 1042.9,51.5 1038.6,127 
			969.9,126.2 973.9,191.2 		"/>
	</g>
	<g>
		<path class="st2" d="M813.6,825.6c-10,6.7-15.8,18.5-17.6,30.4c-2,13.8,1.2,28.3,8.7,40c11.3,17.7,31,27.9,49.8,37.4
			c23.2,11.7,46.5,23.4,69.7,35c10.4,5.2,21,10.5,32.5,12.3c11.5,1.8,24.3-0.6,32.5-8.8c11.2-11.3,10.6-30.4,3-44.3
			c-7.6-13.9-20.7-23.9-33.4-33.4C930.5,873,852.9,799.2,813.6,825.6z"/>
	</g>
	<g>
		<path class="st2" d="M623.1,121.2c-18.8-5.6-22.5-29.9-9.3-43c6.9-6.9,17.8-9.6,27.1-6.8c16.1-46.7,80.5-35.9,89.2,9.8
			c0.5-27.2,28.8-50.2,55.5-45.3c26.7,5,44.8,36.7,35.5,62.2c12.8-12.1,36-9.4,46.4,4.7c10.4,14.1,6.7,36.3-7.2,47.1
			c-13.9,10.8-35.5,9.3-48.4-2.6c-4.8,22.9-26.9,41-50.4,41c-23.4,0-45.6-17.9-50.5-40.8c-7.9,21.8-34.1,35-56.4,28.4
			S617.7,143.7,623.1,121.2z"/>
	</g>
	<g>
		<polygon class="st2" points="706,277.6 688.4,268.3 703.4,239.8 664.8,246.2 692.5,185.1 710.7,193.4 698.5,220.3 739.8,213.4 		
			"/>
	</g>
	<g>
		<path class="st1" d="M749.8,255.8c-4.3-13.8,4.7-26.6,10.8-38.3c2.5-4.9,5-9.6,7.3-14.5c2.7,10.6,6.5,21,9,31.8
			c1.6,6.6,2.8,13.5,1,20c-1.8,6.5-7.4,12.4-14.1,12.5C757.3,267.3,751.7,261.9,749.8,255.8z"/>
	</g>
	<g>
		<path class="st1" d="M799.3,223.6c-4.3-13.8,4.7-26.6,10.8-38.3c2.5-4.9,5-9.6,7.3-14.5c2.7,10.6,6.5,21,9,31.8
			c1.6,6.6,2.8,13.5,1,20c-1.8,6.5-7.4,12.4-14.1,12.5C806.8,235.2,801.2,229.8,799.3,223.6z"/>
	</g>
	<g>
		<path class="st1" d="M350,120.5c0.2-19,16.6-31.5,28.8-43.7c5.1-5.1,10.1-10,15-15.2c-0.9,14.4-0.3,28.9-1.5,43.4
			c-0.7,8.9-1.9,18-6.8,25.5c-4.8,7.4-14.2,12.6-22.7,10C354.7,138,349.9,129,350,120.5z"/>
	</g>
	<g>
		<path class="st1" d="M471,673.5c0.2-19,16.6-31.5,28.8-43.7c5.1-5.1,10.1-10,15-15.2c-0.9,14.4-0.3,28.9-1.5,43.4
			c-0.7,8.9-1.9,18-6.8,25.5c-4.8,7.4-14.2,12.6-22.7,10C475.7,691,470.9,682,471,673.5z"/>
	</g>
	<g>
		<path class="st1" d="M1531.9,480.8c-15.7-11.8-10.7-35.8,6.3-43.6c8.9-4.1,20-2.8,27.8,3.1c31.4-38.2,88-5.6,80.2,40.3
			c9.9-25.3,44.5-37,67.8-23.1s29.2,50,11.6,70.7c16.2-6.9,37,3.7,41.8,20.6c4.8,16.9-6.4,36.4-23.1,41.6s-36.5-3.7-44.5-19.3
			c-12.5,19.8-39.5,29-61.5,20.9c-22-8.1-36.5-32.7-33.1-55.9c-15,17.7-44.2,20.9-62.7,6.9C1523.9,529,1519,500,1531.9,480.8z"/>
	</g>
	<g>
		<path class="st2" d="M1603.7,651.1c0.8-14.4,13.7-23.3,23.4-32.1c4.1-3.7,8-7.2,11.9-11c-1.2,10.9-1.3,22-2.7,32.9
			c-0.8,6.7-2.1,13.6-6.1,19.1c-3.9,5.5-11.2,9.1-17.6,6.8C1606.7,664.6,1603.3,657.6,1603.7,651.1z"/>
	</g>
	<g>
		<path class="st2" d="M1499.6,601.1c0.8-14.4,13.7-23.3,23.4-32.1c4.1-3.7,8-7.2,11.9-11c-1.2,10.9-1.3,22-2.7,32.9
			c-0.8,6.7-2.1,13.6-6.1,19.1c-3.9,5.5-11.2,9.1-17.6,6.8C1502.6,614.6,1499.2,607.6,1499.6,601.1z"/>
	</g>
	<g>
		<path class="st2" d="M1661.3,638.3c0.8-14.4,13.7-23.3,23.4-32.1c4.1-3.7,8-7.2,11.9-11c-1.2,10.9-1.3,22-2.7,32.9
			c-0.8,6.7-2.1,13.6-6.1,19.1c-3.9,5.5-11.2,9.1-17.6,6.8C1664.3,651.7,1660.9,644.7,1661.3,638.3z"/>
	</g>
	<g>
		<path class="st2" d="M1556.4,608.3c0.8-14.4,13.7-23.3,23.4-32.1c4.1-3.7,8-7.2,11.9-11c-1.2,10.9-1.3,22-2.7,32.9
			c-0.8,6.7-2.1,13.6-6.1,19.1c-3.9,5.5-11.2,9.1-17.6,6.8C1559.4,621.7,1556,614.7,1556.4,608.3z"/>
	</g>
	<g>
		<path class="st1" d="M476.6,849.6c-19.5,2.4-32.6-18.4-25.7-35.7c3.6-9.1,12.4-15.9,22.2-17.1c-3.9-49.3,59.5-65.1,85.7-26.6
			c-10.4-25.1,6.3-57.6,32.8-63.7s55.7,15.7,57.4,42.8c6.9-16.2,29.2-23,44.4-14.2c15.2,8.8,20.7,30.6,12.2,46
			c-8.4,15.4-28.8,22.7-45.4,17c4.8,22.9-8.3,48.3-29.8,57.7c-21.5,9.4-49,1.8-62.6-17.3c1.5,23.1-17.3,45.7-40.3,48.5
			C504.3,889.9,480.7,872.4,476.6,849.6z"/>
	</g>
	<g>
		<path class="st1" d="M1754.4,331.1c15.4,17.7,42-7.8,27.8-24.9c-4.5-5.4-12.5-7.3-19.1-5s-11.6,8.5-12.9,15.4
			C1749.1,322,1750.9,327.2,1754.4,331.1z"/>
	</g>
	<g>
		<path class="st1" d="M1749.8,371c-0.8,6.3,1.9,13,7,16.8c2.6,2,5.8,3.2,8.9,4.1c2.4,0.8,5,1.4,7.5,1c3-0.4,5.7-2.1,7.9-4.2
			c9.9-9,11.1-26.8-2.4-33.5C1767.3,349.5,1751.5,358.7,1749.8,371z"/>
	</g>
	<g>
		<path class="st1" d="M1806.6,364.4c2,0.8,4.2,1.1,6.4,1c6.5-0.1,13-2.9,17-8c8.9-11.6-1.7-30.6-16.6-27.8
			C1799.4,332.4,1791.2,358.1,1806.6,364.4z"/>
	</g>
	<g>
		<path class="st1" d="M1811.9,314.4c2.5,0.5,5,0.9,7.5,0.6c19.3-2.2,21-38-0.2-36.1C1801.7,280.5,1790.9,309.7,1811.9,314.4z"/>
	</g>
	<g>
		<path class="st1" d="M1759,262.7c-2.7,4.8-3.2,10.8-1.2,15.9c0.7,1.8,1.7,3.5,3.2,4.6c1,0.7,2.1,1.2,3.2,1.6
			c4.2,1.7,8.6,3.3,13.1,3.5c4.6,0.3,9.4-1,12.5-4.3c3.7-3.9,4.4-9.7,4-15c-0.6-7.9-4-15.8-12.6-16.3
			C1772.9,252.3,1763.3,255.2,1759,262.7z"/>
	</g>
	<g>
		<path class="st1" d="M1710,313.5c1.4,0.8,3,1.4,4.5,1.8c4.3,1.2,8.9,1.8,13.2,0.9s8.5-3.4,10.9-7.2c1.5-2.4,2.2-5.3,2.6-8.1
			c1.7-13.2-11-30.3-25.7-23.7C1703,282.8,1696.4,305.4,1710,313.5z"/>
	</g>
	<g>
		<path class="st1" d="M1720.5,367.5c-14.5-1-22.8-19-15-30.9c7.6-11.5,21.9-9.7,30.5-0.4c2.4,2.6,4.3,5.8,5.1,9.4
			c1.5,7.3-2.6,15.2-9.1,19C1728.6,366.8,1724.5,367.8,1720.5,367.5z"/>
	</g>
	<g>
		<path class="st1" d="M214.8,438.9c23.2,3.1,26.5-33.5,4.5-37c-6.9-1.1-14.2,2.8-17.7,8.9s-3.1,14,0.4,20.1
			C204.8,435.5,209.6,438.2,214.8,438.9z"/>
	</g>
	<g>
		<path class="st1" d="M237.6,471.9c3.5,5.3,10,8.6,16.3,8.1c3.3-0.3,6.4-1.4,9.4-2.8c2.3-1,4.7-2.3,6.4-4.2c2-2.3,2.9-5.4,3.2-8.4
			c1.5-13.3-9.3-27.5-23.9-23.7C236.7,444.3,230.8,461.6,237.6,471.9z"/>
	</g>
	<g>
		<path class="st1" d="M276,429.6c2.1-0.7,3.9-2,5.5-3.4c4.8-4.3,7.9-10.8,7.5-17.2c-0.9-14.6-21.4-21.9-30.7-10
			C249.5,410.2,260.3,435,276,429.6z"/>
	</g>
	<g>
		<path class="st1" d="M247.1,388.4c2.2-1.2,4.4-2.6,6-4.4c13.1-14.4-9.2-42.4-23.9-27C217.1,369.7,228.2,398.8,247.1,388.4z"/>
	</g>
	<g>
		<path class="st1" d="M173.2,384.4c1.1,5.4,4.7,10.2,9.6,12.8c1.7,0.9,3.5,1.5,5.4,1.3c1.2-0.1,2.4-0.5,3.5-0.9
			c4.3-1.5,8.6-3.2,12.2-6c3.6-2.8,6.4-6.9,6.6-11.5c0.2-5.3-3.1-10.2-6.9-14c-5.6-5.6-13.5-9.2-20.2-3.9
			C176.8,367.4,171.5,375.9,173.2,384.4z"/>
	</g>
	<g>
		<path class="st1" d="M169.8,454.9c1.6-0.3,3.1-0.9,4.6-1.6c4-1.9,7.8-4.5,10.5-8.1c2.7-3.6,4.2-8.1,3.5-12.5
			c-0.5-2.8-1.8-5.4-3.4-7.8c-7.4-11.1-28.3-15.5-35-0.9C144.3,436.4,154.2,457.8,169.8,454.9z"/>
	</g>
	<g>
		<path class="st1" d="M213.3,488.7c-11.6,8.8-29.7,0.7-31.6-13.4c-1.8-13.6,10.1-21.8,22.7-20.4c3.6,0.4,7.1,1.5,10,3.7
			c6,4.5,8,13.2,5.7,20.3C218.9,482.8,216.5,486.2,213.3,488.7z"/>
	</g>
	<g>
		<path class="st2" d="M1490.7,278.5c-6.2,19.5,13.3,35.1,4.3,55.7c-2.7,6.2-7.4,11.2-11.3,16.8c-5.5,7.8-14,20.8-9.7,30.7
			c4,9.4,14.8,14.8,25,14.2c10.2-0.6,19.6-6.5,26.1-14.4c8.2-9.9,13.1-23.3,24.6-29.1c15-7.5,32.7,1.9,49.4,1.7
			c15.1-0.2,29.9-9.1,37-22.5c2.5-4.6,4.1-9.9,3.4-15.1c-1.6-11.4-13.9-18.6-25.4-19.3s-22.7,3.1-34.1,5
			c-11.4,1.9-24.2,1.5-32.7-6.3c-8.2-7.5-10.3-20-18.5-27.5C1517.4,257.7,1495.5,263.5,1490.7,278.5z"/>
	</g>
	<g>
		<path class="st2" d="M1273,96.6c2.7,19.2-11.7,31.1-17.9,47.6c-3.7,9.9-2.2,21-1.9,31.6c0.3,10.6-1.2,22.4-9.2,29.4
			c-5.7,5-13.6,6.7-21.2,7.2c-4.8,0.3-9.7,0.3-14.1-1.4c-8.1-3-13.4-11.3-14.8-19.8c-2.9-17.5,5.7-32,13.4-46.6
			c12.5-23.9-10.4-66.9,29.2-74.1c15-2.7,31.4,7.2,35.6,21.8C1272.5,93.7,1272.8,95.1,1273,96.6z"/>
	</g>
	<g>
		<path class="st1" d="M1788.6,81.8c1-19,11.2-35.3,26.1-44.8l61.3,95.7c-9.7,6.2-21.3,9.6-33.7,8.9
			C1811,139.9,1787,113.2,1788.6,81.8z"/>
	</g>
	<g>
		<path class="st2" d="M331.5,841.7c26.4-27.8,156.3-175.8,88.2-212.1c-13.2-7-29.9-5-43.2,1.9c-13.3,6.9-23.9,18-33.8,29.3
			c-34.1,39-62.5,82.6-89.3,126.8c-7.1,11.7-14.1,23.7-17.1,37c-2.9,13.3-1.1,28.4,8,38.6c11.3,12.6,31.1,14.5,46.9,8.7
			S319.9,853.9,331.5,841.7z"/>
	</g>
	<g>
		<path class="st2" d="M440.7,123.7c16.9,14.7,106.7,86.3,123.9,43.6c3.3-8.3,1.4-18.2-3.1-25.9s-11.3-13.6-18.1-19
			c-23.6-18.8-49.6-33.9-75.8-48.1c-6.9-3.7-14-7.5-21.7-8.6c-7.7-1.2-16.1,0.6-21.4,6.5c-6.6,7.3-6.7,19.4-2.6,28.6
			S433.2,117.3,440.7,123.7z"/>
	</g>
	<g>
		<path class="st2" d="M733.7,978.9c-3.2,18.7-15.2,33.8-31.1,41.5c-10.3,5.1-22.3,7-34.5,5c-30.9-5.3-51.7-34.6-46.5-65.5
			c3.2-18.7,15.2-33.8,31.1-41.5c10.3-5.1,22.3-7,34.5-5C718.2,918.7,739,948,733.7,978.9z"/>
	</g>
	<g>
		<path class="st1" d="M733.7,978.9c-3.2,18.7-15.2,33.8-31.1,41.5l-49.9-102.1c10.3-5.1,22.3-7,34.5-5
			C718.2,918.7,739,948,733.7,978.9z"/>
	</g>
	<g>
		<path class="st1" d="M1399.5,365.3c-17.8,6.5-36.9,3.5-51.4-6.4c-9.5-6.5-17.1-15.9-21.4-27.5c-10.7-29.5,4.4-62.1,33.9-72.8
			c17.9-6.5,36.9-3.5,51.4,6.4c9.5,6.5,17.1,15.9,21.4,27.5C1444.1,321.9,1428.9,354.5,1399.5,365.3z"/>
	</g>
	<g>
		<path class="st2" d="M1399.5,365.3c-17.8,6.5-36.9,3.5-51.4-6.4l64-93.9c9.5,6.5,17.1,15.9,21.4,27.5
			C1444.1,321.9,1428.9,354.5,1399.5,365.3z"/>
	</g>
	<g>
		<path class="st1" d="M1516.7,820.7c-19-0.2-35.7-9.7-45.9-24.1c-6.6-9.4-10.5-20.9-10.4-33.2c0.3-31.4,26-56.6,57.3-56.3
			c19,0.2,35.7,9.7,45.9,24.1c6.6,9.4,10.5,20.9,10.4,33.2C1573.7,795.9,1548.1,821.1,1516.7,820.7z"/>
	</g>
	<g>
		<path class="st2" d="M1516.7,820.7c-19-0.2-35.7-9.7-45.9-24.1l92.9-65.4c6.6,9.4,10.5,20.9,10.4,33.2
			C1573.7,795.9,1548.1,821.1,1516.7,820.7z"/>
	</g>
	<g>
		<path class="st2" d="M1161.6,930.1c-12.3,0-24.4-5.6-31.9-15.7c-9.5-12.9-9.5-31.1-1-44.2c1.3-7.5,0.6-15.4-2.1-22.4
			c-2.7-6.8-7.2-13.2-12.1-20.1c-1.3-1.9-2.6-3.7-3.9-5.6c-6.9-10.1-14.1-22.3-15.2-37c-1.3-18.3,8.5-35.1,23.8-40.9
			c16.6-6.2,33.4,1.9,43.5,11.6c5.9,5.6,10.2,11.8,14.4,17.8c2.2,3.2,4.4,6.2,6.6,9c8.4,10.3,19.4,18.3,31.8,23
			c5.6,2.1,11.7,3.6,18.2,5.2c13.2,3.3,26.8,6.7,39,15.6c7.1,5.2,11.9,11.4,14.3,18.2c6,17.7-5.6,35.2-19.5,42.7
			c-11.6,6.2-24.3,7-35.4,7.7l-1.4,0.1c-8.8,0.5-17.9,1.4-23.9,5.5c-3,2.1-5.9,5.5-9,9c-4.7,5.5-10.1,11.7-18,15.9
			C1174.1,928.6,1167.8,930.1,1161.6,930.1z M1149.5,893c0.2,2,0.8,3.9,2,5.4c3.3,4.4,10.7,6,15.6,3.4c3.4-1.8,6.6-5.5,10.3-9.8
			c3.9-4.5,8.3-9.6,14.2-13.7c11.6-8,25.5-9.4,37.5-10.2l1.4-0.1c9.2-0.5,17.9-1.1,24.3-4.5c4.3-2.3,7.6-7.4,6.7-10.2
			c-0.5-1.4-2.2-3.3-4.7-5.1c-7.9-5.8-18.4-8.4-29.5-11.2c-6.9-1.7-14-3.5-21.1-6.2c-17-6.4-32-17.2-43.4-31.3
			c-2.8-3.5-5.3-7-7.7-10.5c-3.6-5.2-7.1-10.1-11-13.8c-5.1-4.9-11.5-7.3-15.4-5.8c-3.9,1.5-6.8,7.6-6.3,13.6
			c0.6,8.3,5.7,16.6,10.5,23.7c1.2,1.8,2.4,3.5,3.7,5.2c5.6,7.9,11.3,16,15.2,25.9C1158.6,855.6,1157.8,875.9,1149.5,893z"/>
	</g>
	<g>
		<path class="st1" d="M1027,1047.7h371c1.4-18.2,0.1-37.6-5-55.1c-5.1-17.5-18.1-33.9-35.9-37.8c-27.6-6-48.3,17.8-74.3,19.7
			c-23.9,1.8-40.1-16.6-60.8-25.1c-15.3-6.3-33.7-4.8-47.7,4.1c-10.5,6.7-18.3,16.9-28.3,24.4c-27.4,20.7-38.1-6.2-63.9-11.6
			c-18.5-3.9-37.6,8.8-46.2,25.7C1027.3,1008.9,1024.7,1028.9,1027,1047.7z"/>
	</g>
	<g>
		<path class="st2" d="M327.1,371.2c13.3,18-4.8,41,0.8,61.2c3.4,12,12.1,23.4,24.2,26.3c10.4,2.5,29,2.8,38.9,6.6
			c8.9,3.3,14.9,6.7,22.9,11.9c13.8,8.9,34.3,5.1,44-8.3c7.8-10.9,8.2-25.5,5.5-38.6c-2.7-13.1-8-25.6-10.7-38.7
			c-2.5-12.2-3.7-26.5-14.1-33.4c-12.8-8.4-30,0.8-45.2-1.9c-32.9-5.9-22.4-40.7-37.8-59.3c-14.7-17.8-47.6-10-59.8,8.5
			C274.5,337.8,311.9,350.6,327.1,371.2z"/>
	</g>
	<g>
		<circle class="st1" cx="401.5" cy="413.7" r="29.6"/>
	</g>
	<g>
		<circle class="st2" cx="1847" cy="1020.4" r="29.6"/>
	</g>
	<g>
		<circle class="st2" cx="68.2" cy="912.6" r="29.6"/>
	</g>
	<g>
		<circle class="st2" cx="1351.3" cy="776" r="29.6"/>
	</g>
	<g>
		<circle class="st2" cx="838.3" cy="720" r="29.6"/>
	</g>
	<g>
		<circle class="st2" cx="917.7" cy="62" r="29.6"/>
	</g>
	<g>
		<circle class="st2" cx="523.7" cy="527" r="29.6"/>
	</g>
	<g>
		<path class="st1" d="M1582.1,19.1c-2.3,10.4-2.7,21.6,1,31.5s12.2,18.6,22.7,20.4c10.5,1.8,21.1-3.1,31.7-2.6
			c11.8,0.6,22.2,7.7,32.9,12.8c13.6,6.5,28.8,9.9,43.9,9.8c11.6-0.1,24.4-2.9,30.8-12.5c3.6-5.3,4.6-12,5.2-18.4
			c1.2-13.7,1.3-27.6-0.7-41.2L1582.1,19.1z"/>
	</g>
	<g>
		<path class="st1" d="M1315.3,230c-9.1-5.6-19.4-9.7-30.1-9.5c-10.7,0.2-21.6,5.4-26.8,14.7c-5.2,9.3-4,20.9-8,30.8
			c-4.5,11-14.6,18.4-23,26.8c-10.6,10.7-18.8,23.9-23.7,38.2c-3.8,10.9-5.3,24,1.6,33.2c3.9,5.1,9.8,8.3,15.6,10.9
			c12.5,5.7,25.6,10.4,39.1,12.9L1315.3,230z"/>
	</g>
	<g>
		<path class="st2" d="M1145,354.5l-84.5-36.6c-3.2-1.4-3.6-5.7-0.8-7.7l85.6-59.8c2.9-2.1,7,0.1,6.9,3.7l-1.1,96.4
			C1151.2,353.7,1147.9,355.8,1145,354.5z"/>
	</g>
	<g>
		<path class="st1" d="M699.6,881.4l-3.4-2.6c-11.6-8.9-13.8-25.5-5-37.1l59.8-78.3c8.9-11.6,25.5-13.8,37.1-5l3.4,2.6
			c11.6,8.9,13.8,25.5,5,37.1l-59.8,78.3C727.8,888.1,711.2,890.3,699.6,881.4z"/>
	</g>
	<g>
		<path class="st2" d="M1387.3,94.4l-19.4-18.8l18.8-19.4c4.5-4.6,4.4-12-0.3-16.5v0c-4.6-4.5-12-4.4-16.5,0.3l-18.8,19.4
			l-19.4-18.8c-4.6-4.5-12-4.4-16.5,0.3v0c-4.5,4.6-4.4,12,0.3,16.5l19.4,18.8L1316,95.5c-4.5,4.6-4.4,12,0.3,16.5v0
			c4.6,4.5,12,4.4,16.5-0.3l18.8-19.4l19.4,18.8c4.6,4.5,12,4.4,16.5-0.3v0C1392,106.3,1391.9,98.9,1387.3,94.4z"/>
	</g>
	<g>
		<path class="st2" d="M115.7,446.6L91.2,458l-11.3-24.5c-2.7-5.9-9.6-8.4-15.5-5.7h0c-5.9,2.7-8.4,9.6-5.7,15.5L70,467.8
			l-24.5,11.3c-5.9,2.7-8.4,9.6-5.7,15.5h0c2.7,5.9,9.6,8.4,15.5,5.7L79.8,489l11.3,24.5c2.7,5.9,9.6,8.4,15.5,5.7h0
			c5.9-2.7,8.4-9.6,5.7-15.5L101,479.2l24.5-11.3c5.9-2.7,8.4-9.6,5.7-15.5h0C128.5,446.5,121.6,443.9,115.7,446.6z"/>
	</g>
	<g>
		<path class="st1" d="M740.3,1044.9h196.4c2.3-17.8-8.6-36.5-25.2-43.5c-17.3-7.2-38-2.3-54.9-10.4c-10.6-5-18.3-14.5-25.3-23.9
			c-7.1-9.4-14.2-19.1-24.2-25.2c-10-6.1-23.9-7.5-32.9,0c-13.8,11.5-8.1,33.8-14,50.8c-3,8.7-9.2,15.9-13.9,23.9
			S736.8,1036.3,740.3,1044.9z"/>
	</g>
	<g>
		<path class="st2" d="M90.9,375.1c-14.6,0-28.3-5.5-37.9-15.3c-6.8-6.9-6.7-18,0.2-24.7s18-6.7,24.7,0.2c3.2,3.3,8.5,5.1,14.1,4.8
			c5.6-0.3,10.7-2.6,13.6-6.2c2.1-2.7,4-6.5,6-10.6c1.2-2.4,2.4-5,3.8-7.5c10.9-19.9,28-33,47-35.8c9-1.4,17.3-0.3,24.6,0.6
			c4.6,0.6,8.9,1.1,12.6,1c13.4-0.6,26.2-12.8,27.4-26.2c0.9-9.6,9.3-16.7,19-15.9c9.6,0.9,16.7,9.4,15.9,19
			c-2.7,30.7-30,56.7-60.8,58c-6.6,0.3-12.9-0.5-18.5-1.2c-5.6-0.7-10.8-1.4-15-0.7c-7.8,1.2-16.1,8.1-21.5,18c-1,1.8-2,3.9-3,6
			c-2.6,5.4-5.6,11.5-10.2,17.2c-9.2,11.5-23.4,18.5-39.1,19.3C92.9,375.1,91.9,375.1,90.9,375.1z"/>
	</g>
	<g>
		<path class="st1" d="M508.8,397.7c-1.8,0-3.7-0.3-5.5-0.9c-9.2-3-14.1-12.9-11.1-22.1c9.7-29.3,42.2-48.3,72.5-42.5
			c6.5,1.3,12.5,3.5,17.7,5.4c5.2,2,10.2,3.8,14.4,4.1c7.9,0.6,17.5-4.2,25.1-12.6c1.4-1.6,2.8-3.3,4.3-5.2
			c3.8-4.6,8.1-9.9,13.8-14.4c11.6-9.1,27-12.6,42.5-9.8c15.5,2.8,28.7,11.6,36.3,24.2c5,8.3,2.4,19-5.9,24c-8.3,5-19,2.4-24-5.9
			c-2.4-3.9-7.1-6.9-12.7-7.9c-5.5-1-11,0.1-14.6,2.9c-2.7,2.1-5.4,5.4-8.3,9c-1.7,2.1-3.5,4.3-5.4,6.5
			c-15.2,16.9-34.8,25.7-53.9,24.1c-9-0.7-16.9-3.6-23.8-6.2c-4.3-1.6-8.4-3.1-12.1-3.8c-13.2-2.5-28.5,6.4-32.7,19.2
			C522.9,393.1,516.1,397.7,508.8,397.7z"/>
	</g>
	<g>
		<path class="st2" d="M561.8,926.2v70.2c0,34.5-27.4,63.2-61.9,63.7c-35,0.5-63.6-27.8-63.6-62.8v-71.2c0-6,4.8-10.8,10.8-10.8
			h27.1l0,85.7c0,13.5,10.5,24.9,23.9,25.4c14.1,0.5,25.7-10.8,25.7-24.8v-86.3H551C556.9,915.4,561.8,920.2,561.8,926.2z"/>
	</g>
	<g>
		<path class="st3" d="M523.8,923.6v78.1c0,13.7-11.1,24.8-24.8,24.8s-24.8-11.1-24.8-24.8v-78.1c0-2.9,0.5-5.6,1.4-8.2h46.8
			C523.3,917.9,523.8,920.7,523.8,923.6z"/>
	</g>
	<g>
		<path class="st1" d="M523.8,923.6v78.1c0,13.7-11.1,24.8-24.8,24.8s-24.8-11.1-24.8-24.8v-78.1c0-2.9,0.5-5.6,1.4-8.2
			c3.4-9.7,12.6-16.6,23.4-16.6c6.9,0,13.1,2.8,17.5,7.3c2.6,2.6,4.6,5.8,5.9,9.3C523.3,917.9,523.8,920.7,523.8,923.6z"/>
	</g>
	<g>
		<circle class="st1" cx="290.9" cy="816.6" r="22"/>
	</g>
	<g>
		<circle class="st1" cx="324.5" cy="768.5" r="23.5"/>
	</g>
	<g>
		<circle class="st1" cx="364.1" cy="720" r="22"/>
	</g>
	<g>
		<circle class="st1" cx="394.1" cy="673" r="24.8"/>
	</g>
	<g>
		<path class="st1" d="M1748.5,859.2c-10.8-21-39.5-17.8-48.9-42c-2.8-7.3-3.1-15.2-4.5-22.9c-1.9-10.9-5.6-28.4-17.2-33
			c-11-4.4-24.2,0-32,8.8c-7.8,8.8-10.7,21.3-9.6,33.1c1.4,14.8,8.3,29.8,3.6,43.9c-6.1,18.3-28.3,25.1-41.8,38.9
			c-12.2,12.5-17,31.8-11.9,48.6c1.8,5.8,4.7,11.5,9.6,15.2c10.6,8,26.5,3.9,36.5-4.9c10-8.8,16-21.1,23.7-31.9
			c7.7-10.8,18.6-21,31.9-21.6c12.8-0.6,24.8,8,37.6,7.4C1743.6,898,1756.8,875.3,1748.5,859.2z"/>
	</g>
	<g>
		<path class="st1" d="M912.9,240.4c-20.2,12.3-14.9,40.7-38.4,51.8c-7,3.3-15,4.2-22.5,6.1c-10.7,2.7-27.9,7.6-31.7,19.5
			c-3.6,11.3,1.7,24.2,11.1,31.3c9.4,7.2,22,9.1,33.7,7.2c14.6-2.4,29.1-10.5,43.5-6.8c18.7,4.8,27.1,26.4,41.8,38.9
			c13.4,11.3,33,14.6,49.3,8.4c5.7-2.2,11.1-5.6,14.4-10.6c7.3-11.1,2-26.7-7.5-36c-9.5-9.3-22.2-14.5-33.5-21.4
			c-11.4-6.9-22.3-17.1-23.8-30.3c-1.5-12.8,6.1-25.3,4.7-38C951.9,242.5,928.3,231,912.9,240.4z"/>
	</g>
	<g>
		<path class="st2" d="M271,164.6c16.8-16.6,5.1-43,25.4-59.2c6.1-4.9,13.6-7.5,20.5-11.1c9.8-5.1,25.4-13.9,26.4-26.3
			c0.9-11.8-7.2-23.1-18-27.9c-10.8-4.8-23.5-3.8-34.4,0.7c-13.7,5.7-25.9,16.9-40.8,16.6c-19.3-0.3-32.4-19.5-49.6-28.2
			c-15.6-7.9-35.5-6.7-49.9,3.2c-5,3.4-9.5,8-11.6,13.7c-4.5,12.5,4.2,26.4,15.6,33.4c11.4,6.9,24.9,9,37.6,13.1
			c12.6,4.1,25.6,11.5,30.1,24c4.4,12.1-0.2,26,4.2,38.1C232.6,171.6,258.2,177.4,271,164.6z"/>
	</g>
	<g>
		<path class="st1" d="M258.9,577.9c-20.8-11.2-42.6,7.7-64.1-7c-6.4-4.4-11.2-10.8-16.6-16.4c-7.7-7.9-20.7-20.3-32.8-17.5
			c-11.5,2.6-20,13.7-21.5,25.4c-1.5,11.7,3.2,23.6,10.8,32.7c9.5,11.4,23.7,19.9,27.8,34.1c5.3,18.6-9.1,36.7-12.5,55.7
			c-3,17.2,4,35.9,17.6,46.8c4.7,3.8,10.4,6.8,16.5,7.1c13.3,0.7,24.1-11.8,27.3-24.7c3.3-12.9,1.3-26.5,1.5-39.7
			c0.2-13.3,3.5-27.8,14.1-35.8c10.3-7.7,24.9-7.4,35.2-15.1C276.7,612.6,274.8,586.5,258.9,577.9z"/>
	</g>
	<g>
		<circle class="st2" cx="1026" cy="799.7" r="22"/>
	</g>
	<g>
		<path class="st1" d="M1424,694.5c-13.3,13.6-31.8,19-49.3,16.3l17.5-112.5c11.4,1.8,22.3,7,31.2,15.7
			C1445.7,636,1446,672.1,1424,694.5z"/>
	</g>
	<g>
		<polygon class="st1" points="869.5,812.8 865.6,786.1 923,777.8 922.8,706.9 994.7,712 1000.5,662.5 1027.3,665.6 1018.5,740.8 
			949.9,735.9 950,801.2 		"/>
	</g>
</g>
<g id="Layer_3">
	<g>
		<g>
			<path class="st2" d="M568.3,671.7c-8.3,0-15.1-6.8-15-15.1l0.3-40.4c0.2-16.3,3.6-30.2,10.2-41.8c6.5-11.6,14.5-21.7,23.9-30.3
				c7.6-6.9,16.6-13.4,27-19.6c10.4-6.2,22.9-13.8,37.7-22.9c2.7-1.7,4.9-3.3,6.7-4.6c1.7-1.4,2.6-3.4,2.6-6.1c0-2-0.7-3.5-2.2-4.6
				c-1.5-1.1-3.3-2-5.5-2.6c-2.2-0.6-4.6-1-7.2-1.3c-2.6-0.2-4.9-0.4-6.8-0.4c-4.9,0-10.2,0.3-15.9,0.9c-5.7,0.6-11.4,1.4-17.2,2.4
				c-5.8,1-11.3,2.2-16.5,3.7l-0.2,0c-7.8,2.2-15.9-2-18.6-9.6l-14.8-41.9c-2.8-7.9,1.4-16.5,9.2-19.3c0.4-0.1,0.8-0.3,1.2-0.4
				c6.8-2.3,14.4-4.5,22.8-6.5c8.4-2,17.1-3.6,26.3-4.8c9.1-1.2,17.6-1.9,25.5-1.9c12.8,0,25.2,1.9,37.2,5.6
				c12,3.7,22.6,9.1,31.8,16.1c9.2,7,16.6,15.6,22.2,25.7c5.5,10.1,8.3,21.7,8.3,34.8c0,13.1-2.2,24.4-6.7,34s-10.3,18.1-17.6,25.3
				c-7.3,7.3-15.6,13.7-25,19.2c-9.4,5.5-19,10.9-28.9,16.1c-4.2,2-8.3,4-12.2,6.1l-0.1,0.1c-3.1,1.7-1.9,6.4,1.6,6.4h79.7
				c8.3,0,15,6.7,15,15v47.7c0,8.3-6.7,15-15,15H568.3z"/>
		</g>
		<g>
			<path class="st2" d="M882.1,675.4c-19.5,0-35.7-2.5-48.7-7.4s-23.4-12.8-31.3-23.7c-7.9-10.9-13.5-24.8-16.8-42
				c-3.3-17.1-5-37.8-5-62c0-24.2,1.7-44.8,5-62c3.3-17.1,8.9-31.2,16.8-42.2c7.9-11,18.3-19,31.3-24.1c13-5.1,29.2-7.6,48.7-7.6
				c19.5,0,35.8,2.5,48.8,7.6c13.1,5.1,23.6,13.1,31.4,24.1c7.9,11,13.5,25,16.8,42.2c3.3,17.1,5,37.8,5,62c0,24.2-1.7,44.8-5,61.8
				c-3.3,17-8.9,31-16.8,41.8c-7.9,10.9-18.4,18.8-31.4,23.9C917.9,672.9,901.6,675.4,882.1,675.4z M882.1,598.8
				c8.9,0,14.3-4.9,16.3-14.8c2-9.9,3-24.4,3-43.7c0-19.2-1-33.9-3-44c-2-10.1-7.4-15.2-16.3-15.2c-4.4,0-7.9,1.3-10.4,3.9
				c-2.5,2.6-4.4,6.4-5.7,11.5c-1.4,5.1-2.2,11.2-2.4,18.5c-0.2,7.3-0.4,15.7-0.4,25.3c0,19.2,0.9,33.8,2.8,43.7
				C867.9,593.9,873.2,598.8,882.1,598.8z"/>
		</g>
		<g>
			<path class="st2" d="M1046.8,651.7V506.3c0-11-9-20-20-20h-1.1c-11,0-20-9-20-20v-7.6c0-6.8,3.4-13.1,9.1-16.8l45.5-29.7
				c3.2-2.1,7-3.2,10.9-3.2h36.6c11,0,20,9,20,20v222.7c0,11-9,20-20,20h-41C1055.7,671.7,1046.8,662.8,1046.8,651.7z"/>
		</g>
		<g>
			<path class="st2" d="M1191.2,597.6c2.8-7,10.7-10.5,17.8-8.1c0,0,0.1,0,0.1,0c4.4,1.5,8.8,2.8,13.1,3.9c4.3,1.1,8.4,2,12.2,2.6
				c3.8,0.6,7.1,1.1,9.8,1.3c7.4,0.5,14-0.1,19.8-1.8c5.8-1.7,10.7-3.9,14.8-6.5c4.1-2.6,7.2-5.2,9.2-7.8c2.1-2.6,3.1-4.6,3.1-6.1
				c0-1.7-1.4-2.3-4.3-1.7c-2.8,0.6-6.2,1.6-10,3c-3.8,1.4-7.8,2.8-11.8,4.3c-4.1,1.5-7.3,2.2-9.8,2.2c-12.3,0-23.9-1.1-34.8-3.3
				c-10.9-2.2-20.4-6.5-28.7-12.8c-8.3-6.3-14.8-15-19.6-26.1c-4.8-11.1-7.2-25.4-7.2-42.9c0-17.3,2.4-31.9,7.2-43.8
				c4.8-12,11.5-21.6,20.2-28.9c8.6-7.3,18.8-12.5,30.5-15.7c11.7-3.2,24.6-4.8,38.7-4.8c17,0,32.1,2.3,45.3,7
				c13.2,4.7,24.3,12.3,33.3,22.8c9,10.5,15.8,24.2,20.5,41.3c4.7,17,7,37.7,7,62.2c0,27.1-2.8,49.5-8.3,67.2
				c-5.6,17.6-13.4,31.7-23.5,42.2c-10.1,10.5-22.3,17.8-36.6,22c-14.3,4.2-30.2,6.3-47.7,6.3c-11.8,0-22.3-0.7-31.3-2.2
				c-9-1.5-16.8-3.3-23.5-5.6c-6.7-2.2-12.3-4.6-16.8-7.2c-0.3-0.2-0.6-0.3-0.9-0.5c-6.2-3.5-8.8-11.1-6.1-17.7L1191.2,597.6z
				 M1276.5,495.6c0-4.4-0.5-7.9-1.5-10.4c-1-2.5-2.3-4.3-3.9-5.5c-1.6-1.2-3.6-2-5.9-2.2c-2.3-0.2-4.8-0.4-7.2-0.4
				c-2.7,0-5.2,0.1-7.4,0.4c-2.2,0.2-4.1,1-5.7,2.2c-1.6,1.2-2.9,3.1-3.9,5.5c-1,2.5-1.5,5.9-1.5,10.4s0.5,7.9,1.5,10.4
				c1,2.5,2.3,4.3,3.9,5.5c1.6,1.2,3.5,2,5.7,2.2c2.2,0.2,4.7,0.4,7.4,0.4c2.5,0,4.9-0.1,7.2-0.4c2.3-0.2,4.3-1,5.9-2.2
				c1.6-1.2,2.9-3.1,3.9-5.5C1276,503.5,1276.5,500,1276.5,495.6z"/>
		</g>
	</g>
</g>
</svg>
